<?xml version="1.0" standalone="no"?>
<!DOCTYPE svg PUBLIC "-//W3C//DTD SVG 20010904//EN"
 "http://www.w3.org/TR/2001/REC-SVG-20010904/DTD/svg10.dtd">
<svg version="1.0" xmlns="http://www.w3.org/2000/svg"
 width="300.000000pt" height="297.000000pt" viewBox="0 0 300.000000 297.000000"
 preserveAspectRatio="xMidYMid meet">
<metadata>
Created by potrace 1.10, written by Peter Selinger 2001-2011
</metadata>
<g transform="translate(0.000000,297.000000) scale(0.100000,-0.100000)"
fill="#000000" stroke="none">
<path d="M1295 2950 c-175 -28 -379 -99 -528 -187 -158 -93 -344 -257 -436
-385 -20 -29 -42 -48 -53 -48 -14 0 -19 -6 -17 -22 2 -13 -14 -54 -36 -93
-137 -243 -207 -536 -191 -800 41 -690 529 -1247 1211 -1381 135 -27 416 -24
551 4 148 32 244 65 379 132 402 199 690 573 787 1023 32 146 32 447 0 589
-67 303 -189 526 -406 744 -213 214 -451 344 -746 409 -89 19 -422 29 -515 15z
m410 -36 c49 -8 94 -20 100 -26 7 -8 5 -9 -9 -4 -70 24 -379 35 -500 16 -26
-4 -43 -4 -39 1 4 4 33 11 63 14 30 4 80 11 110 15 68 9 158 4 275 -16z m-515
-33 c-30 -10 -89 -29 -130 -41 -41 -13 -81 -28 -87 -33 -7 -5 -13 -7 -13 -3 0
4 -11 -1 -25 -10 -14 -9 -25 -12 -25 -8 0 5 -4 4 -8 -2 -4 -6 -29 -21 -57 -34
-27 -13 -52 -26 -55 -29 -3 -3 -32 -24 -65 -45 -53 -34 -86 -60 -184 -141 -38
-32 -67 -64 -134 -148 -34 -43 -63 -73 -65 -67 -9 26 193 237 310 323 79 59
251 157 274 157 7 0 16 5 19 10 4 6 11 8 16 5 5 -4 9 -2 9 4 0 5 14 13 32 16
18 4 39 11 48 15 8 5 42 16 75 25 33 9 65 18 70 20 6 2 19 3 30 3 11 1 -5 -7
-35 -17z m702 -6 c10 -2 26 -9 35 -15 14 -8 12 -9 -12 -4 -16 4 -46 13 -65 21
-32 12 -32 13 -5 7 17 -3 38 -7 47 -9z m-137 -21 c190 -32 419 -129 579 -247
44 -33 119 -99 166 -146 84 -84 180 -207 180 -230 0 -6 4 -11 9 -11 14 0 117
-214 145 -301 51 -160 61 -231 60 -439 0 -220 -13 -297 -79 -476 -69 -184
-163 -332 -308 -481 -214 -220 -467 -353 -772 -405 -99 -17 -146 -19 -270 -15
-370 14 -676 147 -936 406 -200 200 -318 418 -380 702 -31 138 -33 407 -5 539
94 440 369 796 761 985 269 130 546 169 850 119z m372 -65 c165 -78 268 -152
413 -298 109 -109 181 -201 158 -201 -7 1 -26 22 -43 48 -65 103 -291 310
-405 371 -68 36 -171 87 -220 108 -41 18 -47 23 -23 19 18 -3 71 -24 120 -47z
m-1802 -486 c-4 -10 -8 -23 -9 -29 -1 -6 -9 -22 -17 -35 -85 -131 -170 -345
-192 -484 -6 -41 -14 -75 -18 -75 -7 0 -4 27 13 105 10 51 15 70 44 165 20 66
101 242 116 251 5 3 10 10 10 15 1 16 11 39 21 46 6 3 11 17 13 30 3 30 2 28
15 28 7 0 8 -7 4 -17z m2478 -173 c46 -97 87 -209 102 -280 13 -60 -4 -27 -30
60 -26 88 -115 283 -134 294 -11 7 -6 26 7 26 4 0 28 -45 55 -100z m126 -370
c14 -63 14 -83 1 -75 -6 4 -8 10 -5 14 2 5 -1 31 -9 60 -7 28 -10 51 -5 51 4
0 12 -23 18 -50z m21 -122 c1 -18 3 -68 7 -111 4 -68 -3 -151 -23 -262 -10
-57 -15 -39 -7 25 4 36 8 136 8 223 0 86 3 157 7 157 5 0 8 -15 8 -32z m-2861
-188 c0 -55 -4 -100 -8 -100 -4 0 -8 47 -8 105 0 57 3 102 8 99 5 -3 8 -50 8
-104z m2820 -317 c-65 -250 -192 -473 -369 -654 -163 -165 -347 -280 -565
-354 -55 -18 -113 -35 -130 -38 -16 -3 -52 -10 -78 -16 -26 -6 -80 -14 -120
-17 -40 -3 -83 -7 -97 -8 -47 -6 -297 18 -308 29 -12 12 8 12 78 0 96 -17 326
-12 445 9 447 80 841 382 1034 792 60 126 58 122 82 204 22 76 27 90 34 90 2
0 -1 -17 -6 -37z m-2718 -188 c32 -78 76 -158 154 -280 47 -73 258 -284 343
-343 34 -23 98 -61 142 -85 81 -43 105 -65 50 -46 -17 6 -30 16 -30 22 0 6 -3
8 -6 4 -14 -14 -240 144 -324 225 -92 90 -210 234 -210 256 0 5 -7 12 -15 16
-8 3 -14 9 -13 13 2 4 -14 36 -35 69 -20 34 -37 64 -37 68 0 3 -11 29 -24 58
-24 52 -44 118 -34 108 3 -3 21 -41 39 -85z m869 -808 c47 -15 105 -32 130
-39 25 -6 37 -13 28 -15 -9 -2 -36 1 -60 7 -24 7 -45 12 -48 12 -3 0 -20 6
-37 13 -18 8 -33 11 -33 8 0 -3 -10 1 -22 9 -13 8 -40 20 -60 27 -21 7 -38 17
-38 22 0 5 12 3 28 -4 15 -8 65 -26 112 -40z"/>
<path d="M1464 2346 c-42 -19 -85 -77 -91 -124 -6 -45 15 -94 51 -117 22 -15
28 -13 106 34 l83 50 4 58 c4 52 1 61 -20 82 -31 28 -91 36 -133 17z m73 -21
c50 -35 36 -130 -25 -173 l-29 -21 -20 22 c-46 50 -53 88 -27 138 23 45 65 59
101 34z"/>
<path d="M2008 2314 c-34 -18 -48 -43 -48 -83 0 -36 1 -36 41 -15 17 8 33 13
35 11 3 -3 -5 -25 -18 -51 -16 -34 -26 -45 -38 -40 -39 17 -64 15 -109 -7 -39
-19 -48 -29 -49 -51 -1 -33 23 -57 41 -39 9 9 9 14 -2 20 -8 5 -9 11 -3 15 5
3 15 -1 22 -9 7 -8 17 -15 23 -15 5 0 15 -7 22 -17 19 -25 38 -7 21 20 -19 30
-29 77 -16 77 5 0 10 -13 10 -30 0 -32 9 -36 40 -20 15 8 19 5 22 -15 3 -13 1
-23 -5 -22 -22 5 -16 -23 7 -29 30 -7 48 2 45 24 -3 34 2 37 58 35 49 -1 58
-4 55 -19 -2 -9 -10 -23 -18 -31 -21 -21 -17 -37 13 -50 19 -9 30 -10 40 -2
14 12 18 30 6 28 -22 -4 -43 2 -43 12 0 7 10 9 25 7 20 -4 26 -1 31 18 4 16
19 27 52 38 56 19 57 20 43 2 -7 -8 -22 -17 -35 -20 -24 -6 -46 -48 -46 -88 0
-45 74 -27 85 21 3 16 16 40 28 54 12 13 31 36 42 51 13 17 32 28 52 31 30 3
32 2 23 -16 -13 -23 -22 -26 -14 -4 12 30 -6 14 -31 -30 -15 -24 -35 -47 -46
-50 -23 -8 -52 -71 -43 -97 7 -22 47 -24 68 -3 17 17 31 78 22 93 -4 7 63 32
87 32 2 0 2 -11 -1 -25 -5 -28 -1 -29 46 -16 23 7 32 6 32 -2 0 -7 12 2 26 18
14 17 8 3 -14 -30 -30 -46 -46 -61 -66 -63 -28 -2 -33 7 -14 26 18 18 38 15
32 -5 -4 -12 1 -9 15 7 28 34 26 41 -9 28 -17 -5 -36 -8 -44 -5 -15 6 -86 -38
-86 -53 0 -6 9 -10 20 -10 11 0 20 -4 20 -10 0 -5 -4 -10 -9 -10 -5 0 -7 -9
-4 -20 6 -22 11 -24 32 -11 7 5 11 13 7 19 -8 14 26 24 57 17 21 -6 28 1 56
43 25 39 39 51 66 56 19 4 37 12 41 17 4 8 -4 9 -26 4 -35 -8 -35 -7 3 48 10
16 17 30 15 33 -3 2 -31 7 -64 10 -54 6 -62 4 -90 -19 -17 -14 -43 -29 -59
-33 l-28 -7 31 45 31 46 -23 4 c-14 3 -38 -1 -56 -8 -29 -13 -31 -12 -25 6 4
11 2 20 -4 20 -5 0 -16 2 -23 5 -9 4 -21 -7 -33 -29 -11 -20 -31 -40 -47 -45
-34 -12 -35 -6 -3 40 26 39 24 49 -10 49 -15 0 -29 -15 -50 -54 -23 -42 -34
-53 -53 -53 -13 0 -20 2 -15 6 50 34 58 131 16 182 -47 56 -128 75 -185 43z
m131 -30 c27 -22 31 -32 31 -76 0 -44 -4 -54 -34 -84 -34 -34 -59 -41 -84 -25
-11 6 -5 26 28 91 23 45 39 84 37 86 -2 3 -25 -5 -51 -16 -57 -24 -56 -24 -56
-3 0 54 78 70 129 27z m-153 -169 c18 -14 18 -14 -8 -15 -18 0 -28 5 -28 15 0
19 11 19 36 0z m632 -47 c-30 -39 -58 -48 -58 -19 0 27 26 51 57 51 l26 0 -25
-32z m-319 -35 c0 -5 -6 -24 -14 -43 -9 -26 -14 -31 -19 -19 -8 19 9 69 24 69
5 0 10 -3 9 -7z m91 -38 c0 -22 -22 -65 -31 -60 -9 6 11 75 23 75 4 0 8 -7 8
-15z"/>
<path d="M1028 2297 c-17 -13 -41 -107 -28 -107 13 0 26 23 39 68 14 49 12 57
-11 39z"/>
<path d="M2304 2255 c-7 -18 12 -45 32 -45 16 0 33 30 27 48 -7 17 -52 15 -59
-3z"/>
<path d="M1645 2225 c-16 -14 -25 -25 -18 -25 8 0 9 -9 3 -30 -8 -27 -4 -70 7
-70 2 0 17 7 33 15 27 14 30 14 30 0 0 -8 2 -15 5 -15 16 0 128 64 118 67 -7
2 -21 -1 -32 -7 -25 -13 -28 2 -6 40 22 38 19 52 -12 48 -20 -2 -29 -11 -40
-43 -13 -38 -36 -65 -56 -65 -12 0 1 40 24 72 10 15 19 30 19 33 0 14 -49 1
-75 -20z"/>
<path d="M674 2226 c-10 -26 4 -48 28 -44 17 2 23 10 23 28 0 18 -6 26 -23 28
-13 2 -25 -3 -28 -12z"/>
<path d="M1168 2209 c-24 -17 -28 -18 -28 -5 0 10 -9 16 -24 16 -21 0 -26 -8
-44 -72 -10 -40 -18 -75 -16 -77 2 -2 14 -1 27 3 19 4 27 16 36 51 6 26 19 49
31 55 24 13 25 5 8 -51 -6 -22 -8 -42 -5 -46 9 -8 117 64 117 78 0 11 -15 4
-43 -20 -17 -15 -18 -14 -11 14 4 17 11 40 15 53 7 19 5 22 -14 22 -12 0 -34
-10 -49 -21z"/>
<path d="M424 2196 c-42 -19 -74 -62 -74 -101 0 -48 21 -61 50 -30 13 14 26
25 30 25 3 0 3 -24 0 -52 l-5 -53 -43 -6 c-45 -6 -59 -15 -62 -39 -5 -35 1
-51 24 -62 23 -10 30 -6 73 36 41 39 54 46 88 46 87 0 142 73 115 154 -24 73
-124 115 -196 82z m95 -20 c54 -28 70 -124 29 -170 -23 -26 -74 -40 -72 -21 1
6 5 51 9 100 l7 90 -44 -43 c-45 -44 -58 -45 -58 -7 0 51 73 80 129 51z m-104
-236 c-26 -28 -30 -29 -45 -15 -14 15 -13 18 4 31 11 8 31 14 45 14 l25 0 -29
-30z"/>
<path d="M772 2164 c-32 -22 -29 -60 8 -79 37 -19 40 -40 4 -31 -27 7 -58 -9
-48 -25 13 -21 58 -7 105 33 27 22 49 45 49 51 0 5 -6 4 -14 -2 -11 -10 -23
-8 -56 9 -42 22 -46 46 -5 36 27 -7 43 9 19 18 -24 9 -38 7 -62 -10z"/>
<path d="M685 2151 c-15 -6 -22 -23 -30 -79 -8 -53 -8 -72 0 -72 16 0 95 69
95 82 0 6 -8 4 -18 -5 -26 -23 -33 -21 -27 8 3 14 7 36 10 50 6 26 2 28 -30
16z"/>
<path d="M2073 2023 c-7 -2 -9 -11 -6 -19 6 -16 29 -19 37 -5 8 12 -16 30 -31
24z"/>
<path d="M1437 1900 c-62 -11 -123 -51 -144 -96 -14 -28 -15 -43 -7 -84 9 -41
8 -52 -5 -65 -13 -13 -13 -20 -3 -47 10 -27 9 -35 -4 -49 -9 -10 -14 -28 -13
-41 2 -15 -8 -34 -29 -55 -51 -50 -36 -119 36 -163 28 -17 30 -24 34 -82 7
-115 -9 -278 -36 -363 -32 -101 -33 -145 -4 -172 13 -12 75 -40 138 -63 150
-56 210 -58 323 -11 111 47 111 48 97 228 -6 81 -16 173 -21 203 -12 71 -59
170 -108 229 -21 25 -42 57 -46 71 -4 14 -17 36 -30 50 -12 14 -26 39 -30 55
-13 59 -49 127 -69 134 -19 8 -18 9 11 24 53 28 71 60 78 142 14 145 -24 179
-168 155z m127 -42 c24 -34 19 -44 -8 -19 -13 12 -36 26 -52 31 -29 8 -29 8 8
9 27 1 41 -5 52 -21z m-114 1 c0 -7 9 -9 22 -6 30 8 71 -16 92 -56 23 -42 15
-115 -15 -143 -19 -17 -21 -17 -30 -2 -5 10 -16 15 -24 12 -11 -5 -15 1 -15
18 0 14 -13 37 -30 53 -16 16 -30 39 -30 52 0 28 3 28 -56 3 -52 -23 -61 -21
-45 9 25 45 131 94 131 60z m-44 -101 c4 -13 8 -31 9 -41 1 -10 8 -23 15 -30
10 -10 12 -8 7 11 -4 19 -3 21 8 12 7 -6 16 -29 20 -51 4 -21 12 -39 18 -39 6
0 1 -9 -11 -20 -12 -12 -22 -27 -22 -35 0 -8 -10 -20 -22 -26 -22 -12 -22 -11
-5 8 26 29 21 37 -9 14 -41 -32 -78 -28 -97 11 -13 27 -13 33 -1 46 8 8 18 11
22 8 3 -4 1 -10 -5 -14 -15 -10 2 -52 22 -52 8 0 15 5 15 10 0 6 6 10 14 10
12 0 18 15 28 75 5 31 -30 32 -38 1 -9 -37 -24 -32 -24 8 0 25 -5 35 -20 39
-33 8 -25 46 13 62 44 20 55 18 63 -7z m125 -243 c33 -75 45 -147 29 -184 -18
-44 -42 -55 -79 -37 -35 18 -71 74 -71 108 0 14 9 36 19 49 10 14 25 43 31 67
18 58 44 57 71 -3z m-123 -6 c2 -12 -5 -14 -33 -11 -39 5 -47 18 -12 25 31 6
42 3 45 -14z m-82 -18 c13 -10 20 -21 17 -25 -11 -11 -20 -6 -37 19 -20 30
-13 32 20 6z m69 -75 c9 -89 51 -145 110 -146 23 0 27 -3 15 -10 -23 -15 -62
-12 -102 9 -21 10 -48 16 -61 14 -35 -7 -42 13 -11 29 45 22 51 41 30 102 -10
29 -15 59 -12 65 14 22 24 1 31 -63z m-61 7 c18 7 36 -20 36 -52 0 -24 -36
-51 -68 -51 -32 0 -72 43 -72 77 0 24 6 31 33 39 25 8 35 7 44 -4 7 -8 19 -12
27 -9z m286 -89 c0 -12 -37 -44 -51 -44 -4 0 1 20 10 45 14 40 17 43 28 28 7
-9 13 -22 13 -29z m48 -85 c84 -100 106 -173 123 -403 13 -182 17 -171 -81
-211 -118 -47 -158 -44 -341 26 -117 45 -118 46 -79 176 22 74 35 139 39 208
l6 100 18 -32 c10 -18 22 -33 27 -33 15 0 12 11 -15 55 -16 26 -25 55 -25 83
0 48 14 53 77 27 51 -22 82 -18 138 15 28 16 57 30 65 30 8 0 30 -19 48 -41z"/>
<path d="M1465 1490 c-12 -19 -19 -130 -8 -130 6 0 13 30 16 67 7 68 5 83 -8
63z"/>
<path d="M723 767 c-28 -12 -30 -27 -4 -27 10 0 24 -7 31 -15 11 -13 8 -15
-18 -15 -17 0 -34 -4 -37 -10 -3 -5 0 -10 8 -10 8 0 20 -6 26 -14 10 -12 9
-20 -4 -40 -10 -14 -24 -26 -31 -26 -23 0 -16 40 8 49 21 8 21 8 -3 14 -26 7
-69 -15 -69 -36 0 -30 28 -51 72 -52 39 -2 46 1 61 27 20 35 22 64 5 75 -8 5
1 10 26 13 38 5 64 30 31 30 -9 0 -31 11 -48 24 -26 19 -36 22 -54 13z"/>
<path d="M848 653 c-8 -10 -25 -40 -38 -66 -20 -42 -21 -52 -10 -73 11 -20 21
-24 56 -24 48 0 66 16 98 89 16 33 17 46 8 66 -10 21 -18 25 -55 25 -29 0 -49
-6 -59 -17z m68 -14 c7 -12 -44 -129 -57 -129 -19 0 -16 36 8 85 28 56 36 64
49 44z"/>
<path d="M1015 600 c-18 -19 -17 -20 7 -20 13 0 32 -6 42 -13 16 -12 14 -14
-18 -29 -19 -10 -42 -31 -51 -48 -8 -16 -20 -30 -26 -30 -6 0 -4 -7 4 -15 9
-8 17 -19 19 -25 1 -5 12 -7 24 -4 15 4 21 13 21 35 0 33 40 81 87 106 l29 15
-59 24 c-33 13 -59 24 -60 24 0 0 -9 -9 -19 -20z"/>
</g>
</svg>
